<svg xmlns="http://www.w3.org/2000/svg" version="1.1" xmlns:xlink="http://www.w3.org/1999/xlink" xmlns:svgjs="http://svgjs.dev/svgjs" viewBox="0 0 800 800"><defs><linearGradient x1="50%" y1="0%" x2="50%" y2="100%" id="wwwhirl-grad"><stop stop-color="hsl(206, 75%, 49%)" stop-opacity="1" offset="45%"></stop><stop stop-color="hsl(331, 90%, 56%)" stop-opacity="1" offset="100%"></stop></linearGradient></defs><g stroke-width="2" stroke="url(#wwwhirl-grad)" fill="none" stroke-linecap="round"><path d="M-103.25002702713002 450.0713495796857C-84.18752649827425 422.04947380226776 -49.875025546333845 310.991345721154 -11.750024488622302 315.56634584807944C26.374976569089227 320.1413459750048 41.624976992173856 464.02509996680817 79.74997804988539 472.0313501889276C117.87497910759691 480.037600411047 133.12497953068157 368.00728480296164 171.2499805883931 353.9963469142526C209.37498164610463 339.9854090255437 224.6249820691893 404.7788483231244 262.7499831269009 404.7788483231244C300.8749841846124 404.7788483231244 316.124984607697 348.8494717714616 354.24998566540853 353.9963469142526C392.37498672311995 359.1432220570437 407.6249871462046 424.9088488815961 445.74998820391625 429.4838490085215C483.8749892616278 434.05884913544685 499.12498968471243 365.9485347458452 537.249990742424 375.9563475234945C575.3749918001354 385.96416030114375 590.62499222322 479.5229128967679 628.7499932809316 477.5213503412381C666.8749943386432 475.5197877857082 682.1249947617279 364.919159717287 720.2499958194395 366.34884725695116C758.374996877151 367.77853479661536 773.6249973002356 479.8088504047007 811.749998357947 484.3838505316261C849.8749994156584 488.9588506585515 884.1875003675989 408.3244734214916 903.2500008964548 388.308847866193 " transform="rotate(99, 400, 400)"></path><path d="M-88.00002713290118 448.5540375744153C-69.51517813522285 421.3813095478282 -36.24244993940185 313.68857928735423 0.7272480559547887 318.12494304679706C37.69694605131144 322.5613068062398 52.484825249454076 462.08494704071586 89.45452324481073 469.84858361974074C126.42422124016736 477.6122201987656 141.21210043831007 368.97676263941014 178.1817984336667 355.39039862611656C215.15149642902333 341.804034612823 229.93937562716604 404.6340363559316 266.90907362252267 404.6340363559316C303.87877161787935 404.6340363559316 318.66665081602196 350.39948939674343 355.6363488113786 355.39039862611656C392.6060468067353 360.3813078554897 407.3939260048779 424.1540368974799 444.3636240002346 428.5904006569227C481.3333219955913 433.0267644163655 496.1212011937339 366.9803989476609 533.0908991890906 376.684944671442C570.0605971844471 386.3894903952231 584.8484763825898 477.1131292758283 621.8181743779464 475.1722201310721C658.7878723733031 473.23131098631586 673.5757515714458 365.98221710178626 710.5454495668025 367.36858077661213C747.5151475621592 368.75494445143795 762.3030267603019 477.39040201079354 799.2727247556585 481.8267657702363C836.2424227510149 486.2631295296791 869.515150946836 408.0722182694998 887.9999999445145 388.66312682193757 " transform="rotate(96, 400, 400)"></path><path d="M-72.7499967210942 447.03671793975036C-54.84279925459333 420.7131376639941 -22.609843814891732 316.38580522416 13.204551118110004 320.68353261612015C49.018946051111755 324.98126000808037 63.34470402431248 460.144786485229 99.1590989573142 467.66580942115934C134.97349389031592 475.1868323570897 149.2992518635167 369.94623284646406 185.11364679651842 356.7844427085859C220.9280417295202 343.62265257070777 235.25379970272093 404.4892167593443 271.0681946357227 404.4892167593443C306.88258956872437 404.4892167593443 321.2083475419251 351.9494993926307 357.0227424749268 356.7844427085859C392.8371374079286 361.6193860245412 407.1628953811294 423.39921728396916 442.9772903141311 427.6969446759294C478.7916852471328 431.9946720678896 493.1174432203335 368.01225552008196 528.9318381533353 377.41353418999495C564.7462330863369 386.8148128599079 579.0719910595376 474.7033380254942 614.8863859925394 472.8230822915116C650.7007809255414 470.94282655752903 665.0265388987419 367.0452668568909 700.8409338317437 368.3883066668785C736.6553287647456 369.73134647686607 750.9810867379463 474.9719459874917 786.795481670948 479.2696733794519C822.6098766039496 483.56740077141217 854.8428320436511 407.8199554881134 872.7500295101521 389.0173981482875 " transform="rotate(93, 400, 400)"></path><path d="M-57.499996826865356 445.5194135638745C-40.17045089154195 420.044981038949 -8.977268207959753 319.08304641975474 25.681823662687094 323.24213744423236C60.34091553333394 327.40122846871 74.2045522815927 458.20464118853124 108.86364415223954 465.48305048136706C143.52273602288642 472.7614597742029 157.38637277114515 370.9157183123071 192.04546464179202 358.1785020498444C226.7045565124389 345.4412857873817 240.56819326069768 404.344412421546 275.2272851313445 404.344412421546C309.8863770019914 404.344412421546 323.75001375025005 353.49952464730706 358.4091056208969 358.1785020498444C393.06819749154374 362.8574794523817 406.9318342398026 422.64441292924755 441.59092611044935 426.80350395372517C476.2500179810962 430.9625949782028 490.11365472935506 369.04412735129216 524.7727466000019 378.14213896733696C559.4318384706487 387.24015058338176 573.2954752189074 472.2935620339492 607.9545670895543 470.47395971074025C642.6136589602012 468.65435738753126 656.4772957084599 368.1083318707847 691.1363875791069 369.40804781593397C725.7954794497538 370.70776376108324 739.6591161980124 472.553505222979 774.3182080686593 476.71259624745664C808.977299939306 480.87168727193426 840.1704826228882 407.56770796551615 857.5000285582117 389.37168473342655 " transform="rotate(90, 400, 400)"></path><path d="M-42.24999693263652 444.0020634116314C-25.498102528490534 419.3767786375368 4.655307398972241 321.7802418389823 38.15909620726421 325.8006964959773C71.66288501555616 329.8211511529724 85.06440053887295 456.2644501154663 118.56818934716489 463.30024576520753C152.07197815545686 470.33604141494885 165.4734936787737 371.88515800178294 198.97728248706562 359.5725156147356C232.4810712953576 347.25987322768833 245.88258681867444 404.1995623073805 279.38637562696636 404.1995623073805C312.8901644352583 404.1995623073805 326.29167995857506 355.04950412561624 359.79546876686703 359.5725156147356C393.299257575159 364.09552710385503 406.7007730984758 421.88956279815864 440.2045619067678 425.9100174551537C473.70835071505974 429.9304721121488 487.1098662383765 370.07595340613517 520.6136550466686 378.8706979683118C554.1174438549604 387.66544253048846 567.5189593782771 469.8837402660369 601.0227481865692 468.1247913536016C634.5265369948612 466.36584244116625 647.928052518178 369.1713511083113 681.43184132647 370.42774318862223C714.935630134762 371.6841352689332 728.3371456580787 470.13501868209914 761.8409344663706 474.1554733390941C795.3447232746626 478.1759279960892 825.4981332021252 407.31541466655165 842.2500276062713 389.7259255421984 " transform="rotate(87, 400, 400)"></path><path d="M-26.99999703840767 442.48477429454454C-10.82575416543915 418.7086372712808 18.287883005904234 324.4774982933661 50.6363687518413 328.3593165828786C82.98485449777837 332.241134872391 95.92424879615317 454.3243200775575 128.27273454209023 461.11750208420426C160.6212202880273 467.9106840908511 173.56061458640215 372.854658726415 205.90910033233922 360.96659021478314C238.2575860782763 349.0785217031513 251.1969803766512 404.0547732283713 283.5454661225882 404.0547732283713C315.8939518685253 404.0547732283713 328.83334616690007 356.5995446390816 361.18183191283714 360.96659021478314C393.53031765877415 365.33363579048466 406.46971195714906 421.1347737022261 438.81819770308607 425.01659199173855C471.16668344902314 428.898410281251 484.1060777473981 371.10784049613443 516.4545634933351 379.59931800444286C548.8030492392721 388.09079551275136 561.7424435376469 467.4739795332809 594.090929283584 465.7756840316192C626.4394150295211 464.0773885299575 639.378809327896 370.2344313809941 671.727295073833 371.44749959646674C704.0757808197701 372.66056781193936 717.015175118145 467.71659317637545 749.363660864082 471.5984114658879C781.712146610019 475.48022975540033 810.8257837813624 407.06318240274345 827.0000266543309 390.08022738612647 " transform="rotate(84, 400, 400)"></path><path d="M-11.74999714417882 440.9674775480632C3.846594197612262 418.0404882756303 31.920458612836228 327.1747471183554 63.11364129641839 330.9179290403853C94.30682398000056 334.66111096241514 106.78409705343341 452.38418241025425 137.9772797370156 458.9347507738065C169.17046242059777 465.4853191373588 181.6477354940307 373.82415182165255 212.84091817761282 362.36065718543614C244.034100861195 350.8971625492197 256.5113739346279 403.9099765199676 287.70455661821006 403.9099765199676C318.8977393017922 403.9099765199676 331.3750123752251 358.1495775231525 362.56819505880725 362.36065718543614C393.7613777423894 366.5717368477197 406.23865081582227 420.37997697689894 437.43183349940443 424.1231588989288C468.62501618298666 427.86634082095867 481.10228925641957 372.1397199567391 512.2954719400018 380.32793041117947C543.4886546235838 388.5161408656198 555.9659276970166 465.0642111711304 587.1591103805989 463.42656908024236C618.3522930641811 461.7889269893543 630.8295661376139 371.29750402428243 662.0227488211962 372.4672483749167C693.2159315047784 373.63699272555107 705.6932045782113 465.2981600412573 736.8863872617933 469.04134196328715C768.0795699453755 472.784523885317 796.1534343605995 406.8109425095407 811.7500257023905 390.43452160066005 " transform="rotate(81, 400, 400)"></path><path d="M3.5000027500500153 439.45013502521465C18.518942560663646 417.3722935036126 45.55303421976822 329.8719501669775 75.59091384099548 333.4764957215248C105.62879346222275 337.0810412760721 117.64394531071366 450.4439989665838 147.68182493194095 456.7519536870416C177.7197045531682 463.0599084074993 189.73485640165916 374.79359914052293 219.77273602288642 363.7546783797219C249.81061564411368 352.71575761892086 261.82576749260465 403.76513403519664 291.8636471138319 403.76513403519664C321.9015267350592 403.76513403519664 333.91667858355004 359.69956463085623 363.95455820477736 363.7546783797219C393.99243782600456 367.80979212858756 406.0075896744956 419.6251344752046 436.04546929572285 423.2296800297519C466.08334891695006 426.8342255842992 478.09850076544103 373.17155364097664 508.1363803866683 381.0564970415488C538.1742600078954 388.94144044212095 550.1894118563864 462.6543970326127 580.2272914776138 461.0774083524983C610.265171098841 459.5004196723838 622.280322947332 372.3605308912035 652.3182025685593 373.4869513769995C682.3560821897867 374.61337186279553 694.3712340382775 462.87968112977194 724.4091136595047 466.4842266843192C754.4469932807319 470.08877223886645 781.4810849398365 406.55865683997075 796.5000247504502 390.78877003882644 " transform="rotate(78, 400, 400)"></path><path d="M18.750002644278865 437.9328306493387C33.19129092371506 416.70413687856757 59.185609826700215 332.56919136257227 88.06818638557257 336.035100549637C116.95076294444493 339.5010097367017 128.5037935679939 448.50385366988604 157.3863701268663 454.56919474724924C186.26894668573865 460.6345358246124 197.82197730928766 375.76308460636596 226.70455386816002 365.14873772098036C255.58713042703243 354.53439083559476 267.1401610505814 403.62032969739835 296.02273760945377 403.62032969739835C324.90531416832613 403.62032969739835 336.45834479187505 361.24958988553254 365.34092135074746 365.14873772098036C394.2234979096198 369.0478855564281 405.7765285331688 418.87033012048295 434.6591050920412 422.33623930754766C463.5416816509135 425.80214849461237 475.0947122744625 374.20342547218684 503.9772888333349 381.78510181889084C532.8598653922072 389.36677816559484 544.4128960157561 460.2446210410676 573.2954725746285 458.72828577172686C602.1780491335011 457.21195050238606 613.73107975705 373.4235959050973 642.6136563159224 374.50669252605496C671.4962328747948 375.5897891470127 683.0492634983437 460.4612403652592 711.931840057216 463.9271495523239C740.8144166160885 467.39305873938855 766.8087355190736 406.30640931737344 781.2500237985097 391.1430566239655 " transform="rotate(75, 400, 400)"></path><path d="M34.000002538507715 436.41552245876557C47.86363928676644 416.03597643882523 72.81818543363221 335.26642874346976 100.54545893014966 338.5937015630519C128.27273242666715 341.920974382634 139.36364182527416 446.563704558491 167.09091532179164 452.38643199275964C194.81818881830912 458.20915942702834 205.90909821691614 376.7325662575117 233.63637171343362 366.5427932475415C261.3636452099511 356.35302023757134 272.4545546085581 403.4755215449028 300.1818281050756 403.4755215449028C327.9091016015931 403.4755215449028 339.00001100020006 362.79961132551165 366.7272844967175 366.5427932475415C394.454557993235 370.2859751695714 405.54546739184207 418.115521951064 433.2727408883595 421.4427947706462C461.000014384877 424.7700675902282 472.090923783484 375.23529348869977 499.8181972800014 382.5137027815356C527.5454707765189 389.7921120743714 538.6363801751259 457.8348412348253 566.3636536716434 456.37915937625814C594.090927168161 454.923477517691 605.181836566768 374.4866571042938 632.9091100632855 375.5264298604132C660.636383559803 376.56620261653256 671.72729295841 458.0427957860492 699.4545664549274 461.37006860563133C727.1818399514449 464.6973414252134 752.1363860983107 406.0541579800789 766.0000228465693 391.4973393944073 " transform="rotate(72, 400, 400)"></path><path d="M49.25000243273655 434.89821045349515C62.535987649817855 415.3678121843857 86.4507610405642 337.96366230967004 113.02273147472678 341.15229876176954C139.59470190888936 344.34093521386905 150.2234900825544 444.62355163239863 176.795460516717 450.20366542357283C203.36743095087957 455.7837792147469 213.99621912454464 377.7020440939602 240.56818955870722 367.93684495940545C267.1401599928698 358.17164582485066 277.76894816653487 403.33070957770997 304.3409186006975 403.33070957770997C330.91288903486003 403.33070957770997 341.5416772085251 364.3496289507935 368.1136476426876 367.93684495940545C394.68561807685023 371.52406096801735 405.3144062505153 417.36070996694787 431.8863766846779 420.54934641904737C458.4583471188405 423.73798287114687 469.08713529250554 376.26715769051543 495.65910572666814 383.24229992948307C522.2310761608306 390.21744216845076 532.8598643344957 455.42505761388577 559.4318347686583 454.0300291660922C586.0038052028209 452.63500071829867 596.6325933764859 375.54971448879303 623.2045638106487 376.5461633800741C649.7765342448113 377.5426122713552 660.4053224184763 455.624347392142 686.9772928526388 458.8129838442415C713.5492632868013 462.001620296341 737.4640366775477 405.8019028280871 750.750021894629 391.85161835015174 " transform="rotate(69, 400, 400)"></path><path d="M64.5000023269654 433.3809060776193C77.20833601286924 414.6996555593406 100.08333664749618 340.6609035052648 125.50000401930387 343.7109035898817C150.91667139111155 346.76090367449865 161.08333833983465 442.68340633570085 186.50000571164233 448.0209064837805C211.91667308345004 453.35840663186013 222.08334003217314 378.6715295598032 247.50000740398082 369.33090430066386C272.91667477578847 359.99027904152456 283.0833417245116 403.18590523991173 308.50000909631933 403.18590523991173C333.91667646812704 403.18590523991173 344.0833434168501 365.89965420546986 369.50001078865773 369.33090430066386C394.91667816046544 372.7621543958579 405.08334510918854 416.6059056122262 430.50001248099625 419.6559056968431C455.91667985280395 422.70590578146005 466.08334680152706 377.2990295217256 491.5000141733347 383.9709047068251C516.9166815451424 390.64277989192465 527.0833484938654 453.0152816223407 552.5000158656732 451.6809065853208C577.9166832374809 450.3465315483009 588.0833501862039 376.61277950268675 613.5000175580117 377.56590452912957C638.9166849298194 378.51902955557233 649.0833518785425 453.20590662762925 674.5000192503501 456.2559067122462C699.9166866221578 459.3059067968631 722.7916872567847 405.54965530548986 735.5000209426886 392.2059049352908 " transform="rotate(66, 400, 400)"></path><path d="M79.75000222119425 431.8635902576516C91.88068437592064 414.03148749020374 113.71591225442818 343.35813325676776 137.97727656388096 346.2694969739021C162.23864087333376 349.1808606910364 171.9431865971149 440.7432495949113 196.2045509065677 445.83813609989636C220.46591521602048 450.93302260488144 230.17046093980161 379.6410035815544 254.43182524925442 370.72495219783053C278.6931895587072 361.8089008141066 288.3977352824884 403.04108945802164 312.6590995919412 403.04108945802164C336.92046390139393 403.04108945802164 346.62500962517504 367.4496680160544 370.88637393462784 370.72495219783053C395.14773824408064 374.00023637960663 404.8522839678618 415.8510898134127 429.11364827731455 418.7624535305471C453.3750125867674 421.6738172476814 463.0795583105485 378.330889908844 487.34092262000127 384.69949804007535C511.60228692945407 391.0681061713067 521.3068326532352 450.6054941867038 545.568196962688 449.3317725604576C569.8295612721408 448.05805093421134 579.534106995922 377.67583307248873 603.7954713053748 378.5856342340932C628.0568356148276 379.4954353956977 637.7613813386087 450.78745441902475 662.0227456480615 453.69881813615905C686.2841099575143 456.6101818532934 708.1193378360217 405.29739633880075 720.2500199907482 392.56018007633804 " transform="rotate(63, 400, 400)"></path><path d="M95.00000211542309 430.34627443768386C106.55303273897204 413.36331942106693 127.34848786136017 346.0553630082707 150.45454910845808 348.82809035792246C173.56061035555598 351.6008177075742 182.80303485439515 438.8030928541217 205.90909610149305 443.6553657160123C229.01515734859092 448.5076385779028 238.25758184743012 380.61047760330564 261.363643094528 372.11900009499715C284.46970434162597 363.62752258668866 293.7121288404651 402.89627367613156 316.818190087563 402.89627367613156C339.92425133466094 402.89627367613156 349.16667583350005 368.99968182663895 372.27273708059795 372.11900009499715C395.37879832769585 375.2383183633554 404.6212228265351 415.09627401459926 427.727284073633 417.869001364251C450.83334532073087 420.64172871390275 460.07576981957004 379.36275029596237 483.18183106666794 385.42809137332557C506.2878923137658 391.4934324506888 515.530316812605 448.195706751067 538.6363780597028 446.9826385355944C561.7424393068009 445.7695703201217 570.98486380564 378.7388866422907 594.0909250527379 379.6053639390569C617.1969862998359 380.47184123582304 626.439410798675 448.36900221042026 649.5454720457728 451.141729560072C672.6515332928707 453.91445690972375 693.4469884152588 405.0451373721117 705.0000190388077 392.9144552173853 " transform="rotate(60, 400, 400)"></path><path d="M110.25000200965194 428.8289586177162C121.22538110202343 412.69515135193006 140.98106346829218 348.7525927597737 162.93182165303517 351.3866837419429C184.88257983777817 354.020774724112 193.66288311167537 436.8629361133321 215.6136412964184 441.47259533212815C237.5643994811614 446.0822545509242 246.34470275505862 381.5799516250569 268.2954609398016 373.5130479921638C290.2462191245446 365.44614435927076 299.02652239844184 402.7514578942415 320.9772805831849 402.7514578942415C342.9280387679279 402.7514578942415 351.70834204182506 370.5496956372235 373.65910022656806 373.5130479921638C395.60985841131105 376.4764003471041 404.3901616852083 414.3414582157858 426.3409198699513 416.975549197955C448.2916780546943 419.60964018012413 457.0719813285915 380.39461068308077 479.02273951333456 386.1566847065758C500.9734976980775 391.9187587300708 509.75380097197467 445.7859193154302 531.7045591567178 444.6335045107312C553.6553173414608 443.48108970603215 562.435620615358 379.8019402120927 584.386378800101 380.6250936440205C606.337136984844 381.4482470759484 615.1174402587412 445.95055000181577 637.0681984434842 448.5846409839849C659.0189566282272 451.21873196615405 678.7746389944958 404.7928784054226 689.7500180868674 393.26873035843255 " transform="rotate(57, 400, 400)"></path><path d="M125.50000190388079 427.31163898305124C135.89772946507483 412.026979468096 154.61363907522414 351.44981869657937 175.40909419761226 353.94527331126596C196.20454932000035 356.44072792595256 204.52273136895562 434.9227755578453 225.31818649134374 439.2898211335468C246.11364161373183 443.6568667092483 254.43182366268712 382.5494218321108 275.2272787850752 374.90709207463317C296.02273390746336 367.26476231715554 304.3409159564186 402.6066382976542 325.13637107880675 402.6066382976542C345.93182620119484 402.6066382976542 354.25000825015 372.0997056331108 375.04546337253817 374.90709207463317C395.84091849492626 377.71447851615557 404.1591005438815 413.58663860227506 424.95455566626964 416.08209321696165C445.75001078865773 418.57754783164825 454.068192837613 381.42646725550185 474.8636479600012 386.88527422512874C495.6591030823892 392.34408119475563 503.97728513134444 443.37612806509605 524.7727402537325 442.2843666711707C545.5681953761207 441.1926052772453 553.8863774250759 380.8649899671974 574.6818325474642 381.64481953428697C595.4772876698523 382.4246491013765 603.7954697188075 443.53209397851396 624.5909248411956 446.02754859320055C645.3863799635836 448.5230032078871 664.102289573733 404.54061562403626 674.500017134927 393.6230016847825 " transform="rotate(54, 400, 400)"></path><path d="M140.75000179810962 425.79433460717536C150.57007782812622 411.3588228430509 168.24621468215614 354.1470598921742 187.88636674218935 356.5038781393781C207.52651880222257 358.86069638658216 215.38257962623587 432.9826302611475 235.02273168626908 437.1070621937545C254.6628837463023 441.23149412636144 262.5189445703156 383.51890729795383 282.1590966303488 376.30115141589164C301.799248690382 369.08339553382945 309.65530951439536 402.4618339598559 329.29546157442854 402.4618339598559C348.9356136344618 402.4618339598559 356.79167445847503 373.64973088778714 376.4318265185083 376.30115141589164C396.07197857854146 378.95257194399613 403.9280394025548 412.8318342475534 423.568191462588 415.18865249475743C443.2083435226212 417.54547074196137 451.06440434663455 382.45833908671204 470.70455640666773 387.61387900247075C490.3447084667009 392.76941891822946 498.20076929071416 440.966352073551 517.8409213507475 439.93524409039924C537.4810734107807 438.9041361072475 545.3371342347939 381.9280549810911 564.9772862948272 382.6645606833424C584.6174383548605 383.40106638559365 592.4734991788737 441.11365321400126 612.1136512389069 443.47047146120525C631.75380329894 445.82728970840924 649.42994015297 404.28836810143895 659.2500161829867 393.97728826992153 " transform="rotate(51, 400, 400)"></path><path d="M155.9999864335494 424.2770187872077C165.24241093238857 410.6906547739141 181.87877503029907 356.84428964367714 200.36362402797738 359.06247152339853C218.84847302565572 361.2806534031199 226.24241262472702 431.04247352035793 244.72726162240536 434.9242918098704C263.21211062008365 438.8061100993828 270.606050219155 384.48838131970507 289.09089921683335 377.69519931305825C307.5757482145117 370.9020173064115 314.96968781358305 402.3170181779658 333.45453681126133 402.3170181779658C351.9393858089397 402.3170181779658 359.333325408011 375.1997446983717 377.8181744056893 377.69519931305825C396.30302340336766 380.19065392774485 403.69696300243896 412.07701844874 422.1818120001173 414.29520032846136C440.66666099779565 416.51338220818275 448.06060059686695 383.49019947383044 466.5454495945453 388.34247233572097C485.0302985922236 393.19474519761155 492.4242381912949 438.55656463791416 510.9090871889732 437.58611006553605C529.3939361866516 436.61565549315793 536.7878757857229 382.9911085508931 555.2727247834013 383.68429038830607C573.7575737810796 384.377472225719 581.151513380151 438.69520100539677 599.6363623778293 440.91338288511815C618.1212113755075 443.13156476483954 634.757575473418 404.0361091347499 643.9999999722572 394.3315634109688 " transform="rotate(48, 400, 400)"></path><path d="M171.24998632777826 422.75970296723995C179.91475929543998 410.02248670477724 195.51135063723106 359.5415193951801 212.84089657255447 361.6210649074189C230.1704425078779 363.7006104196577 237.10226088200727 429.10231677956835 254.4318068173307 432.74152142598626C271.76135275265415 436.3807260724042 278.6931711267835 385.4578553414563 296.02271706210695 379.0892472102249C313.3522629974304 372.72063907899354 320.28408137155975 402.1722023960757 337.6136273068832 402.1722023960757C354.9431732422066 402.1722023960757 361.87499161633593 376.74975850895623 379.2045375516594 379.0892472102249C396.5340834869828 381.4287359114936 403.46590186111223 411.3222026499265 420.7954477964356 413.4017481621653C438.12499373175905 415.4812936744041 445.05681210588847 384.52205986094884 462.3863580412119 389.07106566897124C479.7159039765353 393.62007147699364 486.64772235066465 436.14677720227735 503.9772682859881 435.23697604067286C521.3068142213115 434.32717487906837 528.2386325954409 384.0541621206951 545.5681785307644 384.7040200932697C562.8977244660878 385.35387806584436 569.8295428402171 436.2767487967923 587.1590887755406 438.35629430903106C604.488634710864 440.43583982126984 620.0852260526551 403.78385016806084 628.7499990203169 394.685838552016 " transform="rotate(45, 400, 400)"></path><path d="M186.4999862220071 421.24239096196953C194.58710765849136 409.3543224503377 209.14392624416305 362.2387529613803 225.3181691171316 364.17966210613656C241.49241199010012 366.1205712508928 247.96210913928752 427.16216385347605 264.13635201225605 430.5587548567994C280.3105948852246 433.9553458601228 286.780292034412 386.42733317790476 302.95453490738055 380.4832989220888C319.1287777803491 374.5392646662729 325.59847492953656 402.02739042888294 341.77271780250504 402.02739042888294C357.9469606754736 402.02739042888294 364.416657824661 378.2997761342381 380.59090069762954 380.4832989220888C396.765143570598 382.6668217099396 403.23484071978544 410.5673906658103 419.409083592754 412.50829981056654C435.5833264657225 414.4492089553228 442.05302361491 385.55392406276445 458.22726648787847 389.7996628169187C474.401509360847 394.04540157107294 480.87120651003437 433.73699358133774 497.04544938300296 432.8878458305069C513.2196922559715 432.038698079676 519.6893894051589 385.1172195051943 535.8636322781274 385.72375361293064C552.0378751510959 386.33028772066695 558.5075723002834 433.858300402885 574.681815173252 435.7992095476412C590.8560580462204 437.74011869239746 605.4128766318921 403.531595016069 613.4999980683764 395.0401175077605 " transform="rotate(42, 400, 400)"></path><path d="M201.74998611623596 419.7250713273046C209.25945602154275 408.68615056650356 222.77650185109505 364.935978898186 237.79544166170868 366.73825167545965C252.8143814723223 368.5405244527333 258.82195739656777 425.2220032979892 273.8408972071814 428.37598065821805C288.85983701779503 431.5299580184469 294.8674129420405 387.39680338495873 309.88635275265415 381.8773430045582C324.9052925632678 376.3578826241577 330.91286848751326 401.8825708322956 345.9318082981269 401.8825708322956C360.9507481087405 401.8825708322956 366.95832403298596 379.8497861301254 381.97726384359964 381.8773430045582C396.9962036542132 383.90489987899105 403.00377957845876 409.8125710522996 418.02271938907234 411.6148438295732C433.04165919968597 413.4171166068469 439.04923512393145 386.5857806351856 454.0681749345451 390.5282523354717C469.08711474515866 394.47072403575777 475.09469066940414 431.3272023310036 490.11363048001783 430.5387079909464C505.13257029063146 429.7502136508892 511.14014621487695 386.18026926029904 526.1590860254905 386.743479503197C541.1780258361043 387.30668974609506 547.1856017603498 431.43984437958323 562.2045415709633 433.24211715685686C577.2234813815769 435.0443899341305 590.7405272111291 403.27933223468267 598.249997116436 395.3943888341105 " transform="rotate(39, 400, 400)"></path><path d="M216.9999860104648 418.2077612293828C223.93180438459416 408.01798821941264 236.40907745802704 367.6332143717349 250.27271420628577 369.29685078152596C264.1363509545445 370.960487191317 269.681805653848 423.28185227924547 283.54544240210674 426.1932159963798C297.4090791503655 429.10457971351417 302.954533849669 388.36628312875587 316.81817059792775 383.2713966237708C330.6818073461865 378.1765101187857 336.22726204548997 401.7377607724514 350.09089879374875 401.7377607724514C363.9545355420075 401.7377607724514 369.49999024131097 381.39980566275585 383.3636269895697 383.2713966237708C397.2272637378285 385.1429875847857 402.77271843713197 409.057760975532 416.6363551853907 410.7213973853231C430.4999919336494 412.3850337951141 436.0454466329529 387.6176467443499 449.90908338121164 391.2568513907678C463.7727201294704 394.8960560371857 469.31817482877386 428.9174206174127 483.18181157703265 428.1895796881291C497.04544832529143 427.4617387588455 502.5909030245949 387.24332855214686 516.4545397728536 387.7632149302066C530.3181765211125 388.2831013082663 535.863631220416 429.02139789302464 549.7272679686746 430.68503430281567C563.5909047169334 432.3486707126067 576.0681777903662 403.02707899003946 582.9999961644955 395.74866969720364 " transform="rotate(36, 400, 400)"></path><path d="M232.24998590469363 416.69044540941513C238.60415274764557 407.3498201502758 250.04165306495904 370.33044412323784 262.7499867508629 371.8554441655463C275.4583204367667 373.3804442078548 280.54165391112826 421.3416955384559 293.2499875970321 424.01044561249574C305.95832128293597 426.67919568653554 311.0416547572975 389.33575715050705 323.74998844320135 384.6654445209374C336.45832212910517 379.99513189136775 341.5416556034668 401.5929449905613 354.2499892893706 401.5929449905613C366.9583229752744 401.5929449905613 372.041656449636 382.94981947334037 384.7499901355398 384.6654445209374C397.4583238214436 386.38106956853443 402.5416572958052 408.30294517671854 415.24999098170906 409.827945219027C427.95832466761294 411.3529452613355 433.0416581419745 388.6495071314683 445.74999182787826 391.985444724018C458.45832551378214 395.3213823165678 463.54165898814364 426.5076331817758 476.2499926740475 425.8404456632659C488.9583263599514 425.17325814475595 494.0416598343129 388.30638212194884 506.7499935202168 388.7829446351702C519.4583272061207 389.25950714839166 524.5416606804822 426.6029456844201 537.249994366386 428.12794572672857C549.9583280522899 429.65294576903705 561.3958283696034 402.7748200233504 567.7499952125552 396.1029448382509 " transform="rotate(33, 400, 400)"></path><path d="M247.49998579892247 415.17313721884193C253.27650111069696 406.6816597105335 263.674228671891 373.02768150413533 275.22725929544 374.41404517896126C286.78028991898896 375.80040885378713 291.4015021684085 419.40154642706085 302.9545327919575 421.82768285800614C314.5075634155064 424.25381928895143 319.128775664926 390.3052388016528 330.68180628847495 386.0595000474986C342.2348369120239 381.8137612933443 346.8560491614435 401.4481368380658 358.4090797849924 401.4481368380658C369.96211040854143 401.4481368380658 374.58332265796093 384.4998409133195 386.1363532815099 386.0595000474986C397.6893839050589 387.6191591816777 402.3105961544785 407.5481370072996 413.8636267780274 408.93450068212553C425.41665740157634 410.3208643569514 430.03786965099596 389.68137514798116 441.5909002745449 392.71404568666276C453.1439308980938 395.74671622534436 457.7651431475134 424.09785337553353 469.31817377106233 423.49131926779717C480.87120439461137 422.88478516006086 485.4924166440309 389.36944332114535 497.0454472675799 389.80268196952846C508.5984778911289 390.2359206179115 513.2196901405484 424.18450110521013 524.7727207640974 425.570864780036C536.3257513876463 426.9572284548619 546.7234789488404 402.5225686860558 552.4999942606148 396.4572276086926 " transform="rotate(30, 400, 400)"></path><path d="M262.7499856931513 413.65582139887425C267.94884947374834 406.0134916413966 277.306804278823 375.72491125563835 287.70453184001707 376.9726385629816C298.1022594012111 378.2203658703249 302.26135042568876 417.4613896862713 312.65907798688283 419.644912474122C323.05680554807685 421.8284352619728 327.21589657255447 391.27471282340406 337.61362413374854 387.4535479446652C348.0113516949426 383.63238306592643 352.17044271942024 401.3033210561757 362.5681702806143 401.3033210561757C372.9658978418083 401.3033210561757 377.12498886628595 386.04985472390405 387.52271642748 387.4535479446652C397.92044398867404 388.85724116542644 402.0795350131517 406.7933212084862 412.4772625743458 408.04104851582946C422.8749901355398 409.2887758231727 427.0340811600174 390.71323553509956 437.4318087212115 393.44263901991303C447.82953628240557 396.17204250472645 451.98862730688313 421.68806593989666 462.3863548680772 421.142185242934C472.7840824292713 420.5963045459713 476.9431734537489 390.43249689094733 487.34090101494303 390.8224116744921C497.7386285761371 391.2123264580369 501.89771960061466 421.76604889660564 512.2954471618087 423.0137762039489C522.6931747230028 424.2615035112922 532.0511295280774 402.27030971936676 537.2499933086744 396.8115027497399 " transform="rotate(27, 400, 400)"></path><path d="M278.00000084616926 412.13850939360384C282.6212130955888 405.345327386957 290.93939514454405 378.4221448218386 300.1818196433832 379.53123576169924C309.4242441422224 380.64032670155996 313.121213941758 415.52123676017897 322.36363844059724 417.4621459049352C331.60606293943636 419.40305504969143 335.30303273897204 392.2441906598525 344.5454572378112 388.84759965652916C353.7878817366504 385.45100865320575 357.48485153618606 401.1585090889829 366.72727603502517 401.1585090889829C375.9697005338644 401.1585090889829 379.6666703334 387.59987234918583 388.9090948322392 388.84759965652916C398.15151933107836 390.0953269638724 401.848489130614 406.03850922437 411.0909136294532 407.14760016423065C420.3333381282923 408.2566911040914 424.030307927828 391.7450997369152 433.2727324266672 394.1712361678605C442.5151569255063 396.59737259880575 446.21212672504197 419.27828231895705 455.45455122388114 418.79305503276805C464.6969757227203 418.30782774657894 468.393945522256 391.4955542754466 477.63637002109516 391.84214519415303C486.87879451993433 392.1887361128595 490.57576431947 419.34760050269836 499.8181888183092 420.4566914425591C509.0606133171483 421.5657823824198 517.3787953661035 402.0180545673749 522.0000076155231 397.1657817054844 " transform="rotate(24, 400, 400)"></path><path d="M293.2500007403981 410.6211916662875C297.2935614586402 404.6771574104716 304.57197075147604 381.1193726659929 312.6590921879603 382.089827238371C320.7462136244446 383.06028181074913 323.9810621990383 413.58107811204076 332.0681836355226 415.27937361370243C340.15530507200685 416.97766911536417 343.39015364660054 393.2136627742551 351.4772750830848 390.24164564634714C359.5643965195691 387.26962851843916 362.7992450941628 401.0136913997442 370.886366530647 401.0136913997442C378.9734879671313 401.0136913997442 382.20833654172503 389.14988425242177 390.2954579782093 390.24164564634714C398.3825794146935 391.3334070402725 401.61742798928725 405.2836915182079 409.7045494257715 406.254146090586C417.7916708622558 407.2246006629641 421.0265194368495 392.776958216685 429.1136408733338 394.8998275937621C437.20076230981806 397.0226969708392 440.43561088441174 416.8684929759716 448.522732320896 416.4439191005562C456.6098537573803 416.01934522514074 459.84470233197396 392.55860593789987 467.93182376845823 392.86187299176805C476.0189452049425 393.16514004563624 479.25379377953624 416.92914638674523 487.3409152160205 417.89960095912335C495.4280366525047 418.87005553150146 502.7064459453406 401.76579369333723 506.7500066635827 397.520054939183 " transform="rotate(21, 400, 400)"></path><path d="M308.50000063462693 409.10387870734274C311.96590982169164 404.00899220235766 318.20454635840804 383.8166052785188 325.1363647325374 384.6484234834143C332.06818310666677 385.4802416883099 334.8409104563185 411.64092423227413 341.77272883044793 413.0966060908413C348.7045472045773 414.5522879494084 351.47727455422904 394.1831396570293 358.4090929283584 391.63569640453676C365.34091130248777 389.0882531520442 368.1136386521395 400.8688784788771 375.0454570262689 400.8688784788771C381.9772754003983 400.8688784788771 384.75000275005004 390.6999009240293 391.68182112417935 391.63569640453676C398.61363949830877 392.5714918850442 401.3863668479605 404.52887858041737 408.3181852220899 405.3606967853129C415.25000359621924 406.19251499020845 418.022730945871 393.80882146482634 424.95454932000035 395.62842378803526C431.8863676941297 397.44802611124425 434.65909504378146 414.4587084013577 441.5909134179109 414.09478793671593C448.52273179204025 413.7308674720741 451.295459141692 393.6216623687248 458.22727751582136 393.88160555775465C465.1590958899508 394.1415487467845 467.9318232396025 414.5106970391637 474.86364161373183 415.3425152440592C481.79545998786125 416.1743334489547 488.03409652457765 401.5135375876711 491.5000057116423 397.87433294125316 " transform="rotate(18, 400, 400)"></path><path d="M323.75000052885576 407.58656860942097C326.638258184743 403.34082985526675 331.83712196534003 386.51384075206767 337.61363727711455 387.20702258948063C343.390152588889 387.90020442689354 345.7007587135988 409.70077321353045 351.4772740253733 410.91384142900307C357.25378933714774 412.1269096444757 359.56439546185754 395.15261940082644 365.340910773632 393.0297500237493C371.11742608540646 390.90688064667216 373.42803221011627 400.7240684190329 379.20454752189073 400.7240684190329C384.98106283366525 400.7240684190329 387.291668958375 392.24992045665977 393.06818427014946 393.0297500237493C398.844699581924 393.80957959083884 401.1553057066338 403.7740685036498 406.93182101840824 404.46725034106277C412.7083363301827 405.1604321784757 415.0189424548925 394.8406875739906 420.79545776666697 396.3570228433314C426.57197307844143 397.8733581126722 428.88257920315124 412.04892668776677 434.6590945149257 411.7456596338986C440.4356098267002 411.44239258003046 442.74621595141 394.6847216605727 448.5227312631845 394.9013409847642C454.29924657495894 395.1179603089558 456.60985269966875 412.09225055260504 462.3863680114432 412.785432390018C468.16288332321767 413.4786142274309 473.3617471038147 401.2612843430279 476.25000475970194 398.2286138043463 " transform="rotate(15, 400, 400)"></path><path d="M338.99999660838733 406.0692546968019C341.31060273309714 402.6726636934785 345.46969375757476 389.21107241091926 350.0909060069944 389.7656178808496C354.71211825641393 390.32016335078 356.56060315618174 407.76061838008945 361.18181540560136 408.73107295246757C365.8030276550209 409.7015275248457 367.6515125547887 396.12209532992625 372.27272480420834 394.4237998282646C376.89393705362795 392.72550432660285 378.74242195339576 400.57925454449145 383.3636342028153 400.57925454449145C387.98484645223493 400.57925454449145 389.83333135200274 393.7999361745929 394.4545436014223 394.4237998282646C399.0757558508419 395.0476634819362 400.9242407506097 403.01925461218497 405.54545300002934 403.5738000821153C410.1666652494489 404.1283455520457 412.01515014921677 395.8725498684576 416.6363623986363 397.0856180839302C421.2575746480559 398.2986862994029 423.10605954782375 409.6391411594785 427.7272717972433 409.396527516384C432.34848404666286 409.15391387328947 434.19696894643073 395.7477771377233 438.81818119585034 395.92107259707655C443.4393934452699 396.09436805642974 445.2878783450377 409.6738002513492 449.9090905944573 410.22834572127954C454.5303028438769 410.7828911912099 458.6893938683545 401.0090272836875 460.9999999930643 398.5828908527422 " transform="rotate(12, 400, 400)"></path><path d="M354.2499965026162 404.5519407841829C355.98295109614855 402.00449753169033 359.10226936450675 391.9083040697709 362.56817855157146 392.32421317221866C366.0340877386361 392.7401222746664 367.420451413462 405.8204635466485 370.8863606005267 406.5483044759321C374.35226978759135 407.2761454052157 375.7386334624173 397.0915712590261 379.20454264948194 395.8178496327798C382.6704518365466 394.5441280065336 384.0568155113725 400.43444066995 387.5227246984372 400.43444066995C390.9886338855019 400.43444066995 392.37499756032776 395.3499518925261 395.8409067473924 395.8178496327798C399.3068159344571 396.2857473730336 400.693179609283 402.26444072072013 404.15908879634765 402.68034982316794C407.62499798341236 403.0962589256157 409.01136165823823 396.90441216292464 412.4772708453029 397.8142133245291C415.9431800323676 398.72401448613357 417.32954370719347 407.22935563119034 420.7954528942582 407.0473953988694C424.2613620813229 406.86543516654854 425.6477257561487 396.8108326148739 429.1136349432134 396.94080420938883C432.5795441302781 397.07077580390376 433.965907805104 407.2553499500933 437.43181699216865 407.6712590525411C440.89772617923336 408.08716815498883 444.01704444759156 400.756770224347 445.7499990411239 398.9371679011381 " transform="rotate(9, 400, 400)"></path><path d="M369.50000021154233 403.0346278252381C370.6553032738972 401.3363323235764 372.734848786136 394.6055366822968 375.0454549108458 394.88280941726197C377.3560610355556 395.1600821522271 378.2803034854395 403.8803096668819 380.5909096101493 404.36553695307094C382.9015157348591 404.85076423926 383.825758184743 398.0610481418003 386.1363643094528 397.21190039096945C388.4469704341626 396.3627526401386 389.3712128840465 400.2896277490829 391.6818190087563 400.2896277490829C393.9924251334661 400.2896277490829 394.91666758335 396.89996856413364 397.2272737080598 397.21190039096945C399.5378798327696 397.52383221780525 400.46212228265347 401.50962778292967 402.7727284073633 401.7869005178948C405.0833345320731 402.06417325286 406.007576981957 397.93627541106594 408.31818310666677 398.5428095188023C410.6287892313766 399.1493436265386 411.5530316812605 404.8195710565764 413.86363780597026 404.69826423502917C416.17424393068006 404.5769574134819 417.098486380564 397.8738890456988 419.4090925052738 397.96053677537543C421.71969862998355 398.04718450505203 422.6439410798675 404.8369006025118 424.9545472045773 405.1141733374769C427.26515332928705 405.3914460724421 429.3446988415259 400.5045141186809 430.5000019038808 399.2914459032082 " transform="rotate(6, 400, 400)"></path><path d="M384.75000010577116 401.51731391261904C385.3276516369486 400.66816616178824 386.367424393068 397.3027683411484 387.5227274554229 397.441404708631C388.6780305177778 397.58004107611356 389.14015174271975 401.94015483344094 390.29545480507466 402.1827684765355C391.45075786742956 402.42538211963 391.9128790923715 399.0305240709001 393.0681821547264 398.60595019548475C394.2234852170813 398.1813763200693 394.68560644202324 400.14481387454146 395.84090950437815 400.14481387454146C396.99621256673305 400.14481387454146 397.458333791675 398.4499842820668 398.6136368540299 398.60595019548475C399.7689399163848 398.76191610890265 400.23106114132673 400.75481389146483 401.38636420368164 400.8934502589474C402.54166726603654 401.03208662643 403.00378849097854 398.96813770553297 404.1590915533334 399.27140475940115C405.3143946156883 399.5746718132693 405.7765158406303 402.40978552828824 406.9318189029851 402.3491321175146C408.08712196534003 402.28847870674093 408.549243190282 398.9369445228494 409.7045462526369 398.9802683876877C410.8598493149918 399.023592252526 411.3219705399338 402.41845030125586 412.4772736022886 402.55708666873846C413.6325766646435 402.69572303622107 414.67234942076294 400.2522570593404 415.25000095194036 399.6457229516041 " transform="rotate(3, 400, 400)"></path></g></svg>